<?xml version="1.0" encoding="UTF-8" standalone="no"?>
<!-- Created with Inkscape (http://www.inkscape.org/) -->

<svg
   xmlns:dc="http://purl.org/dc/elements/1.1/"
   xmlns:cc="http://creativecommons.org/ns#"
   xmlns:rdf="http://www.w3.org/1999/02/22-rdf-syntax-ns#"
   xmlns:svg="http://www.w3.org/2000/svg"
   xmlns="http://www.w3.org/2000/svg"
   xmlns:inkscape="http://www.inkscape.org/namespaces/inkscape"
   version="1.0"
   width="750"
   height="600"
   id="svg2">
  <title
     id="title4">Ohio State Route 239</title>
  <defs
     id="defs13" />
  <metadata
     id="metadata6">
    <rdf:RDF>
      <cc:Work
         rdf:about="">
        <dc:format>image/svg+xml</dc:format>
        <dc:type
           rdf:resource="http://purl.org/dc/dcmitype/StillImage" />
        <dc:title>Ohio State Route 239</dc:title>
      </cc:Work>
    </rdf:RDF>
  </metadata>
  <rect
     width="750"
     height="600"
     rx="37.5"
     ry="37.5"
     x="0"
     y="0"
     id="rect8"
     style="fill:#000000;fill-rule:nonzero" />
  <path
     d="m 38.472,35.525 h 194.55 c 15.124,7.4633 32.88,13.302 52.283,17.82 19.402,4.518 41.955,-5.8749 63.662,-3.6927 10.853,1.0911 19.614,7.394 30.673,7.5722 11.059,0.17818 24.416,-5.7684 35.434,-5.5406 22.036,0.4556 28.695,17.336 62.627,14.902 20.323,-1.4579 35.06,-10.302 55.223,-16.182 20.163,-5.8802 45.819,-8.0005 67.117,-7.8043 40.78,0.37571 81.559,-16.015 122.34,-22.952 l 2.1279,226.42 c -21.491,11.321 -5.3814,30.351 -6.8184,48.012 -0.78535,9.6524 -2.4507,19.637 -11.846,24.781 -9.3587,5.1248 -8.4636,17.268 -4.0553,31.198 5.8355,18.44 -3.8197,36.947 -8.4439,55.024 -4.6242,18.077 -14.026,35.099 -32.597,49.873 -18.166,14.453 -45.297,38.832 -77.362,42.639 -41.392,4.9138 -55.211,19.832 -77.444,38.85 -10.253,8.7704 -15.03,11.253 -38.982,12.924 -13.351,0.93144 -9.8988,9.0298 -39.67,10.416 -29.38,1.368 -56.637,14.745 -74.127,14.722 -49.026,-0.0634 -89.255,-51.29 -153.88,-58.384 -32.25,-3.54 -62.11,-14.77 -91.35,-27.01 -14.683,-6.15 -28.767,-18.33 -44.991,-20.54 -19.54,-2.65 -23.774,-15.13 -37.427,-20.39 v -401.76 c -0.464,-7.392 5.455,-11.024 12.97,-10.895 z"
     inkscape:connector-curvature="0"
     id="path10"
     style="fill:#ffffff;stroke-width:0;stroke-miterlimit:4" />
  <g
     id="routenum"
     style="font-size:372.01998901px;font-style:normal;font-variant:normal;font-weight:normal;font-stretch:normal;text-align:center;line-height:100%;letter-spacing:0px;word-spacing:0px;writing-mode:lr-tb;text-anchor:middle;fill:#000000;font-family:Roadgeek 2005 Series C">
    <path
       d="m 76.98,415 c 0.49601,-14.633 2.3561,-28.026 5.5804,-40.179 3.2242,-12.153 8.3085,-24.181 15.253,-36.086 5.2083,-9.4245 11.657,-18.105 19.345,-26.042 7.6884,-8.1844 15.873,-15.501 24.554,-21.949 2.232,-1.24 4.2162,-2.48 5.9524,-3.7202 1.736,-1.488 3.4721,-2.852 5.2083,-4.0923 l 13.393,-7.0684 12.277,-7.0684 11.905,-6.6964 c 4.9602,-3.224 8.9284,-7.1923 11.905,-11.905 3.2241,-4.9601 4.8362,-10.044 4.8363,-15.253 -1.5e-4,-4.7121 -1.2402,-9.0524 -3.7202,-13.021 -2.4803,-4.2161 -5.8285,-7.8123 -10.045,-10.789 -3.9684,-2.976 -8.6807,-5.3321 -14.137,-7.0685 -5.4565,-1.7359 -11.285,-2.604 -17.485,-2.6042 -12.649,2.1e-4 -22.942,2.9764 -30.878,8.9286 -7.6886,5.9526 -12.525,14.633 -14.509,26.042 l -39.435,-8.5565 c 4.2162,-20.833 13.889,-37.078 29.018,-48.735 15.129,-11.905 33.73,-17.857 55.804,-17.857 11.905,2.5e-4 22.941,1.9844 33.11,5.9524 10.417,3.9685 19.345,9.3008 26.786,15.997 7.6883,6.6966 13.765,14.633 18.229,23.81 4.4641,8.9288 6.6962,18.477 6.6964,28.646 -2e-4,9.6728 -2.2323,19.221 -6.6964,28.646 -4.2165,9.1767 -10.417,17.361 -18.601,24.554 -1.9843,1.4882 -3.8444,2.8523 -5.5804,4.0923 -1.4883,1.2402 -3.1004,2.2323 -4.8363,2.9762 l -12.277,7.8125 -13.393,7.0684 -12.277,7.0685 c -5.9525,3.4723 -11.285,7.1926 -15.997,11.161 -4.4644,3.7203 -8.6806,7.8126 -12.649,12.277 -3.7203,4.4644 -7.3166,9.4247 -10.789,14.881 -3.2243,5.4564 -6.3245,11.657 -9.3006,18.601 h 122.4 v 40.179 h -169.64"
       inkscape:connector-curvature="0"
       id="path2987" />
    <path
       d="m 456.87,332.78 c -1.9e-4,12.649 -2.1083,24.306 -6.3244,34.97 -4.2164,10.665 -10.169,19.841 -17.857,27.53 -7.4406,7.4405 -16.493,13.393 -27.158,17.857 -10.417,4.2163 -21.95,6.3244 -34.598,6.3244 -10.169,-1e-5 -19.717,-1.6121 -28.646,-4.8363 -8.6806,-3.2242 -16.741,-7.6885 -24.182,-13.393 -7.1925,-5.7044 -13.393,-12.649 -18.601,-20.833 -5.2084,-8.1845 -9.0526,-17.361 -11.533,-27.53 l 38.69,-11.161 c 2.9761,12.153 8.4325,21.453 16.369,27.902 7.9364,6.4484 17.857,9.6726 29.762,9.6726 6.6963,4e-5 12.773,-1.116 18.229,-3.3482 5.4562,-2.2321 10.045,-5.2083 13.765,-8.9286 3.9681,-3.9682 7.0683,-8.5565 9.3006,-13.765 2.232,-5.4563 3.3481,-11.409 3.3482,-17.857 -1.5e-4,-6.4483 -1.2402,-12.525 -3.7202,-18.229 -2.4803,-5.7043 -5.9525,-10.169 -10.417,-13.393 -1.4882,-0.99195 -2.8523,-1.736 -4.0923,-2.2321 -0.99219,-0.74393 -2.3563,-1.24 -4.0923,-1.4881 -1.4882,-0.2479 -3.5964,-0.49591 -6.3244,-0.74404 -2.4803,-0.2479 -6.0765,-0.49592 -10.789,-0.74405 h -4.4643 v -40.179 1.1161 h 1.1161 0.74405 7.8125 c 7.9364,1.6e-4 14.013,-2.108 18.229,-6.3244 4.2161,-4.2161 6.3243,-10.292 6.3244,-18.229 -1.4e-4,-9.6724 -3.4724,-17.609 -10.417,-23.81 -6.6966,-6.4482 -15.129,-9.6724 -25.298,-9.6726 -16.617,2.1e-4 -29.142,8.1847 -37.574,24.554 l -36.83,-13.765 c 6.4484,-15.873 16.121,-28.274 29.018,-37.202 13.145,-9.1763 27.902,-13.765 44.271,-13.765 10.417,2.5e-4 20.213,1.9844 29.39,5.9524 9.4245,3.9685 17.609,9.4248 24.554,16.369 6.9443,6.9447 12.401,15.129 16.369,24.554 3.9681,9.1768 5.9522,18.973 5.9524,29.39 -1.7e-4,7.4406 -0.99224,14.137 -2.9762,20.089 -1.9843,5.9525 -5.7045,12.897 -11.161,20.833 4.7121,4.2164 8.5564,8.3087 11.533,12.277 2.976,3.7204 5.3322,7.6886 7.0684,11.905 1.9839,4.2164 3.348,8.8047 4.0923,13.765 0.74386,4.7124 1.1159,10.169 1.1161,16.369"
       inkscape:connector-curvature="0"
       id="path2989" />
    <path
       d="m 673.17,240.89 c -2e-4,17.113 -2.3563,34.226 -7.0684,51.339 -4.4645,16.865 -10.913,33.11 -19.345,48.735 -8.4327,15.625 -18.601,30.134 -30.506,43.527 -11.905,13.393 -25.05,25.05 -39.435,34.97 l -18.973,-33.482 c 7.4404,-5.9523 14.013,-11.657 19.717,-17.113 5.9523,-5.7043 11.285,-11.533 15.997,-17.485 4.7122,-5.9523 9.0525,-12.277 13.021,-18.973 3.9681,-6.6963 7.8124,-14.137 11.533,-22.321 -7.1926,1.2402 -12.773,2.1082 -16.741,2.6042 -3.7204,0.49614 -8.0606,0.74415 -13.021,0.74405 -11.657,1e-4 -22.694,-1.984 -33.11,-5.9524 -10.169,-3.9681 -19.097,-9.3005 -26.786,-15.997 -7.6885,-6.9443 -13.765,-15.005 -18.229,-24.182 -4.4643,-9.4244 -6.6964,-19.345 -6.6964,-29.762 -2e-5,-10.664 2.2321,-20.585 6.6964,-29.762 4.4642,-9.4244 10.417,-17.485 17.857,-24.182 7.6884,-6.9442 16.617,-12.401 26.786,-16.369 10.417,-3.968 21.577,-5.9521 33.482,-5.9524 11.905,2.5e-4 23.065,2.1084 33.482,6.3244 10.417,3.9685 19.345,9.5488 26.786,16.741 7.6883,6.9447 13.641,15.253 17.857,24.926 4.4641,9.6728 6.6962,20.213 6.6964,31.622 m -39.435,-3.3482 c -1.6e-4,-4.7121 -1.2402,-9.3004 -3.7202,-13.765 -2.4803,-4.4641 -5.8285,-8.3083 -10.045,-11.533 -3.9684,-3.224 -8.6807,-5.8282 -14.137,-7.8125 -5.4565,-1.9839 -11.285,-2.976 -17.485,-2.9762 -6.2005,2.1e-4 -12.029,0.99227 -17.485,2.9762 -5.2084,1.7363 -9.9207,4.2165 -14.137,7.4405 -3.9683,3.2244 -7.1925,7.0686 -9.6726,11.533 -2.2322,4.4645 -3.3483,9.1768 -3.3482,14.137 -7e-5,4.9605 1.116,9.6728 3.3482,14.137 2.4801,4.2164 5.7043,7.9367 9.6726,11.161 4.2162,3.2244 8.9285,5.8285 14.137,7.8125 5.4562,1.7363 11.285,2.6043 17.485,2.6042 6.2003,1.4e-4 12.029,-0.86791 17.485,-2.6042 5.7042,-1.984 10.541,-4.5881 14.509,-7.8125 4.2161,-3.224 7.4403,-6.9443 9.6726,-11.161 2.48,-4.4641 3.7201,-9.1764 3.7202,-14.137"
       inkscape:connector-curvature="0"
       id="path2991" />
  </g>
</svg>
